<?xml version="1.0" standalone="no"?>
<!DOCTYPE svg PUBLIC "-//W3C//DTD SVG 20010904//EN"
 "http://www.w3.org/TR/2001/REC-SVG-20010904/DTD/svg10.dtd">
<svg version="1.0" xmlns="http://www.w3.org/2000/svg"
 width="1182.000000pt" height="1182.000000pt" viewBox="0 0 1182.000000 1182.000000"
 preserveAspectRatio="xMidYMid meet">
<metadata>
Created by potrace 1.14, written by Peter Selinger 2001-2017
</metadata>
<g transform="translate(0.000000,1182.000000) scale(0.100000,-0.100000)"
fill="#000000" stroke="none">
<path d="M0 5915 l0 -5905 5905 0 5905 0 0 5905 0 5905 -5905 0 -5905 0 0
-5905z m6045 2567 c65 -31 121 -86 157 -154 23 -42 23 -49 26 -415 l3 -373
639 0 c688 0 723 -2 850 -53 98 -40 170 -87 245 -162 83 -81 142 -177 182
-290 l28 -80 3 -1497 c3 -1669 6 -1572 -67 -1723 -77 -160 -185 -272 -336
-345 -166 -81 -18 -75 -1860 -75 -1295 0 -1653 3 -1702 13 -143 30 -275 105
-379 215 -111 118 -170 238 -194 392 -7 48 -10 526 -8 1535 l3 1465 23 75 c62
202 202 366 387 455 148 72 117 69 862 73 l672 3 3 367 3 367 34 63 c63 116
156 171 291 171 62 1 85 -4 135 -27z m-2735 -3217 l0 -975 -117 0 c-132 1
-182 9 -258 46 -121 57 -216 166 -255 293 -19 60 -20 93 -20 637 0 553 1 577
21 636 54 161 186 283 347 322 31 8 108 15 170 15 l112 1 0 -975z m5451 965
c82 -15 193 -74 254 -135 68 -68 121 -175 135 -271 7 -46 10 -262 8 -610 l-3
-539 -24 -60 c-64 -161 -181 -269 -336 -310 -36 -9 -103 -15 -172 -15 l-113 0
0 975 0 975 99 0 c54 0 123 -4 152 -10z"/>
<path d="M4830 6306 c-133 -37 -235 -133 -281 -264 -16 -45 -20 -76 -17 -148
5 -119 41 -197 128 -277 84 -78 147 -101 275 -102 94 0 105 2 168 33 123 61
207 174 229 308 46 275 -233 524 -502 450z"/>
<path d="M6782 6304 c-137 -37 -236 -128 -283 -262 -16 -45 -20 -76 -17 -148
5 -119 41 -197 128 -277 84 -78 147 -101 275 -102 92 0 106 3 166 31 161 77
263 267 231 430 -49 241 -274 389 -500 328z"/>
<path d="M4690 4588 c-105 -71 -108 -197 -7 -272 26 -19 44 -21 238 -24 202
-3 211 -2 250 20 104 58 113 201 17 270 -32 22 -41 23 -248 26 -211 3 -216 3
-250 -20z"/>
<path d="M5675 4594 c-46 -24 -63 -43 -81 -90 -29 -76 3 -157 76 -194 39 -20
55 -21 250 -18 192 3 211 5 236 24 53 39 69 71 69 134 0 66 -18 99 -75 138
-32 21 -42 22 -239 22 -167 0 -212 -3 -236 -16z"/>
<path d="M6640 4588 c-105 -71 -108 -197 -7 -272 26 -19 44 -21 238 -24 202
-3 211 -2 250 20 104 58 113 201 17 270 -32 22 -41 23 -248 26 -211 3 -216 3
-250 -20z"/>
</g>
</svg>
